<svg width="96" height="48" viewBox="0 0 96 48" fill="none" xmlns="http://www.w3.org/2000/svg">
<g clip-path="url(#clip0_29_21329)">
<path d="M15.8175 35.2007C12.585 35.2007 9.81 34.6935 7.5 33.6856C5.22 32.6778 3.435 31.1894 2.145 29.2338C0.885 27.2782 0.1875 24.8487 0.0525 21.952C0.015 20.6172 0 19.1822 0 17.6471C0 16.112 0.015 14.6503 0.0525 13.2487C0.1875 10.412 0.9 8.01594 2.1975 6.06034C3.4875 4.07137 5.295 2.56964 7.605 1.56181C9.915 0.520602 12.66 0 15.8175 0C18.06 0 20.1375 0.280324 22.0425 0.834298C23.9475 1.3549 25.6125 2.1358 27.045 3.18368C28.47 4.19151 29.58 5.43295 30.36 6.90131C31.1775 8.33631 31.605 9.96486 31.635 11.7936C31.6725 12.0873 31.5675 12.3343 31.3275 12.5278C31.125 12.7214 30.87 12.8215 30.5625 12.8215H23.67C23.2275 12.8215 22.89 12.7414 22.65 12.5745C22.41 12.381 22.2075 12.0339 22.035 11.5467C21.555 9.81802 20.775 8.64333 19.6875 8.02928C18.63 7.37519 17.325 7.04815 15.7575 7.04815C13.89 7.04815 12.405 7.5554 11.3175 8.56324C10.23 9.54437 9.63 11.1863 9.5325 13.5023C9.4275 16.172 9.4275 18.9152 9.5325 21.7184C9.6375 24.0345 10.23 25.6964 11.3175 26.7042C12.405 27.6853 13.8825 28.1726 15.7575 28.1726C17.325 28.1726 18.6525 27.8455 19.74 27.1914C20.8275 26.5374 21.5925 25.3693 22.035 23.674C22.17 23.1868 22.3575 22.8598 22.5975 22.6929C22.8675 22.4993 23.2275 22.3992 23.67 22.3992H30.5625C30.87 22.3992 31.125 22.4993 31.3275 22.6929C31.5675 22.8865 31.665 23.1334 31.635 23.4271C31.5975 25.2492 31.1775 26.8978 30.36 28.3661C29.58 29.8011 28.47 31.0359 27.045 32.0838C25.6125 33.0916 23.9475 33.8792 22.0425 34.4332C20.1375 34.9538 18.06 35.2141 15.8175 35.2141V35.2007Z" fill="#084892"/>
<path d="M71.2424 35.2005C70.8824 35.2005 70.5824 35.0804 70.3499 34.8468C70.1174 34.6132 70.0049 34.3128 70.0049 33.9391V1.25462C70.0049 0.887532 70.1174 0.587184 70.3499 0.346906C70.5824 0.113303 70.8749 -0.00683594 71.2424 -0.00683594H94.3649C94.7249 -0.00683594 95.0249 0.113303 95.2574 0.346906C95.4899 0.58051 95.6024 0.880857 95.6024 1.25462V5.98009C95.6024 6.34718 95.4899 6.64753 95.2574 6.8878C95.0249 7.12141 94.7324 7.24155 94.3649 7.24155H78.5699V14.0294H93.2774C93.6374 14.0294 93.9374 14.1629 94.1699 14.4299C94.4024 14.6635 94.5149 14.9638 94.5149 15.3376V19.7093C94.5149 20.043 94.4024 20.3434 94.1699 20.617C93.9374 20.8506 93.6449 20.9708 93.2774 20.9708H78.5699V27.9588H94.7624C95.1224 27.9588 95.4224 28.079 95.6549 28.3126C95.8874 28.5462 95.9999 28.8465 95.9999 29.2203V33.9458C95.9999 34.3128 95.8874 34.6132 95.6549 34.8535C95.4224 35.0871 95.1299 35.2072 94.7624 35.2072H71.2424V35.2005Z" fill="#084892"/>
<path d="M46.1104 5.57292C45.4804 5.8132 44.8579 6.1002 44.2729 6.42057C43.6579 6.73427 43.0729 7.07466 42.5404 7.43508C40.7929 7.08801 39.1204 6.45394 37.5904 5.45946C35.9704 4.42493 34.6354 3.0767 33.5029 1.56829V1.28129C33.5029 0.293485 34.7029 -0.320558 35.6554 0.173346L46.1104 5.56625V5.57292Z" fill="#F8AF2C"/>
<path d="M41.3179 8.37604C39.2854 10.1181 38.0629 12.2539 37.5079 14.5565C35.9029 13.3751 34.6054 11.8734 33.5029 10.2382V2.64941C33.5029 2.64941 33.5029 2.66276 33.5179 2.66944C35.4379 5.67291 38.2054 7.50169 41.3179 8.37604Z" fill="#F8AF2C"/>
<path d="M38.3179 23.6408C36.3154 22.1991 34.7779 20.2568 33.5029 18.1811V11.1797C33.7054 11.5601 33.9304 11.9339 34.1854 12.2943C35.0629 13.6626 36.1129 14.7905 37.2979 15.6916C36.9154 18.2812 37.3204 21.0311 38.3179 23.6474V23.6408Z" fill="#F8AF2C"/>
<path d="M43.1257 31.1692L39.9307 32.8245C39.5932 32.6443 39.2632 32.444 38.9407 32.2371C36.6382 30.7688 34.9132 28.653 33.5107 26.3637V18.7949C33.8857 19.6426 34.3132 20.4835 34.8607 21.2711C36.0157 23.0732 37.4782 24.4548 39.1282 25.456C39.4357 26.07 39.7732 26.6707 40.1482 27.2514C40.9732 28.6196 41.9407 29.9078 43.0582 31.1025C43.0807 31.1292 43.1107 31.1492 43.1332 31.1759L43.1257 31.1692Z" fill="#F8AF2C"/>
<path d="M38.7754 33.412L35.6554 35.0205C34.7029 35.5211 33.5029 34.907 33.5029 33.9126V26.9712C33.8779 27.8188 34.3054 28.6598 34.8529 29.4474C35.9329 31.1227 37.2604 32.4308 38.7754 33.412Z" fill="#F8AF2C"/>
<path d="M49.5678 27.8455L43.7253 30.8623C43.6803 30.8156 43.6428 30.7689 43.6128 30.7221C42.6603 29.4807 41.8503 28.1592 41.1378 26.8043C41.0553 26.6574 40.9878 26.5106 40.9053 26.3638C43.4778 27.4517 46.4028 27.7921 49.3353 27.5251C49.4103 27.6319 49.4778 27.7454 49.5603 27.8455H49.5678Z" fill="#F8AF2C"/>
<path d="M48.5856 26.3102C45.6606 26.4971 42.7581 26.0833 40.1781 24.7751C39.0681 22.1521 38.3931 19.3021 38.5881 16.5522C40.7631 17.8404 43.2756 18.4811 45.8856 18.6013C46.1556 21.2377 47.1156 23.9007 48.5781 26.3035L48.5856 26.3102Z" fill="#F8AF2C"/>
<path d="M56.4455 24.2947L54.878 25.1023C54.878 25.1023 54.863 25.1157 54.8555 25.1157C53.2205 25.6296 51.503 26.01 49.7855 26.2103C48.5555 23.8609 47.6105 21.2445 47.3105 18.6215C49.7105 18.5614 52.163 18.0942 54.488 17.2866C54.6155 19.6427 55.313 22.0588 56.4455 24.3014V24.2947Z" fill="#F8AF2C"/>
<path d="M67.2825 18.7083L65.325 19.7161L64.8 19.9898L64.785 20.0031L57.5475 23.7274C56.5875 21.5049 55.935 19.1021 55.875 16.746C56.46 16.5057 57.03 16.2388 57.5925 15.9584C59.025 15.2777 60.375 14.4834 61.6275 13.5757L67.2825 16.4924C68.2275 16.9863 68.2275 18.2144 67.2825 18.7016V18.7083Z" fill="#F8AF2C"/>
<path d="M60.915 13.2085C59.6925 13.916 58.4025 14.5234 57.0825 15.0774C56.685 15.2442 56.2875 15.4044 55.875 15.5579C55.9575 14.0495 56.295 12.5745 56.9625 11.1729L60.915 13.2152V13.2085Z" fill="#F8AF2C"/>
<path d="M55.8675 10.6058C54.96 12.2944 54.5175 14.1499 54.465 16.0521C52.14 16.7996 49.665 17.3068 47.2275 17.3669C47.13 14.5637 47.8425 11.8205 49.7925 9.45109C50.0475 9.13739 50.3175 8.83037 50.6025 8.54337C50.7375 8.39654 50.8875 8.2497 51.0375 8.11621L51.4725 8.34314L55.8525 10.5991L55.8675 10.6058Z" fill="#F8AF2C"/>
<path d="M49.7178 7.43503C47.7153 7.77542 45.6753 7.86886 43.6953 7.62858C44.5878 6.96114 45.5553 6.36045 46.5753 5.81982L49.7178 7.43503Z" fill="#F8AF2C"/>
<path d="M48.893 8.83011C46.673 11.2529 45.743 14.2564 45.8105 17.36C43.3205 17.2599 40.8905 16.6592 38.7305 15.3643C39.038 13.4822 39.803 11.6667 41.1455 10.0448C41.5505 9.55094 41.9855 9.08374 42.4655 8.6499C44.528 9.07039 46.7105 9.11043 48.893 8.83011Z" fill="#F8AF2C"/>
<path d="M37.3202 26.2835C37.1327 26.2835 36.9752 26.2167 36.8402 26.0899C36.7202 25.9631 36.6602 25.7962 36.6602 25.596V23.6538C36.6602 23.5269 36.6902 23.3334 36.7652 23.0798C36.8327 22.8061 37.0127 22.5525 37.2977 22.3122L39.9302 19.5223C41.2802 18.4077 42.3827 17.4733 43.2452 16.7057C44.1227 15.9248 44.7752 15.2307 45.1952 14.63C45.6152 14.0293 45.8252 13.462 45.8252 12.9347C45.8252 12.314 45.6752 11.8067 45.3677 11.4063C45.0827 10.9858 44.5727 10.7789 43.8527 10.7789C43.3652 10.7789 42.9527 10.899 42.6152 11.1326C42.2927 11.3529 42.0527 11.6399 41.8802 12.007C41.7077 12.3741 41.5952 12.7478 41.5277 13.1283C41.4602 13.3619 41.3402 13.5287 41.1752 13.6222C41.0252 13.7156 40.8527 13.7557 40.6727 13.7557H37.5077C37.3577 13.7557 37.2302 13.7023 37.1252 13.5888C37.0202 13.482 36.9752 13.3418 36.9752 13.1817C36.9902 12.3073 37.1627 11.4864 37.4777 10.7188C37.8152 9.95125 38.2802 9.27714 38.8727 8.69647C39.4802 8.09577 40.2002 7.62857 41.0252 7.30152C41.8652 6.97448 42.8102 6.80762 43.8602 6.80762C45.2927 6.80762 46.5077 7.05457 47.5052 7.54847C48.5177 8.04238 49.2827 8.72984 49.8077 9.62421C50.3327 10.4986 50.5952 11.5264 50.5952 12.7144C50.5952 13.6088 50.4077 14.4431 50.0402 15.2307C49.6877 15.9982 49.1702 16.7324 48.4952 17.4466C47.8352 18.1407 47.0552 18.8616 46.1402 19.6091L43.8152 22.152H50.3177C50.5052 22.152 50.6552 22.2188 50.7752 22.3456C50.9102 22.4724 50.9777 22.6393 50.9777 22.8395V25.6027C50.9777 25.8029 50.9102 25.9698 50.7752 26.0966C50.6552 26.2234 50.5052 26.2901 50.3177 26.2901H37.3352L37.3202 26.2835Z" fill="white"/>
</g>
<rect y="41.6001" width="56.5048" height="2" rx="1" fill="black"/>
<path d="M92.2196 45.72C92.1396 45.72 92.0716 45.692 92.0156 45.636C91.9596 45.58 91.9316 45.512 91.9316 45.432V39.78C91.9316 39.692 91.9596 39.62 92.0156 39.564C92.0716 39.508 92.1396 39.48 92.2196 39.48H93.1916C93.2716 39.48 93.3396 39.508 93.3956 39.564C93.4596 39.62 93.4916 39.692 93.4916 39.78V40.272C93.6756 40.016 93.9116 39.82 94.1996 39.684C94.4956 39.548 94.8356 39.48 95.2196 39.48H95.7116C95.7996 39.48 95.8676 39.508 95.9156 39.564C95.9716 39.62 95.9996 39.688 95.9996 39.768V40.632C95.9996 40.712 95.9716 40.78 95.9156 40.836C95.8676 40.892 95.7996 40.92 95.7116 40.92H94.7756C94.3916 40.92 94.0916 41.028 93.8756 41.244C93.6676 41.46 93.5636 41.756 93.5636 42.132V45.432C93.5636 45.512 93.5356 45.58 93.4796 45.636C93.4236 45.692 93.3516 45.72 93.2636 45.72H92.2196Z" fill="black"/>
<path d="M87.4542 45.8399C86.5662 45.8399 85.8622 45.5839 85.3422 45.0719C84.8222 44.5599 84.5422 43.8319 84.5022 42.8879C84.4942 42.8079 84.4902 42.7079 84.4902 42.5879C84.4902 42.4599 84.4942 42.3599 84.5022 42.2879C84.5342 41.6879 84.6702 41.1679 84.9102 40.7279C85.1582 40.2879 85.4982 39.9519 85.9302 39.7199C86.3622 39.4799 86.8702 39.3599 87.4542 39.3599C88.1022 39.3599 88.6462 39.4959 89.0862 39.7679C89.5262 40.0319 89.8582 40.4039 90.0822 40.8839C90.3062 41.3559 90.4182 41.9039 90.4182 42.5279V42.7799C90.4182 42.8599 90.3902 42.9279 90.3342 42.9839C90.2782 43.0399 90.2062 43.0679 90.1182 43.0679H86.1342C86.1342 43.0679 86.1342 43.0799 86.1342 43.1039C86.1342 43.1279 86.1342 43.1479 86.1342 43.1639C86.1422 43.4439 86.1942 43.7039 86.2902 43.9439C86.3942 44.1759 86.5422 44.3639 86.7342 44.5079C86.9342 44.6519 87.1702 44.7239 87.4422 44.7239C87.6662 44.7239 87.8542 44.6919 88.0062 44.6279C88.1582 44.5559 88.2822 44.4759 88.3782 44.3879C88.4742 44.2999 88.5422 44.2279 88.5822 44.1719C88.6542 44.0759 88.7102 44.0199 88.7502 44.0039C88.7982 43.9799 88.8662 43.9679 88.9542 43.9679H89.9862C90.0662 43.9679 90.1302 43.9919 90.1782 44.0399C90.2342 44.0879 90.2582 44.1479 90.2502 44.2199C90.2422 44.3479 90.1742 44.5039 90.0462 44.6879C89.9262 44.8719 89.7502 45.0519 89.5182 45.2279C89.2862 45.4039 88.9942 45.5519 88.6422 45.6719C88.2982 45.7839 87.9022 45.8399 87.4542 45.8399ZM86.1342 42.0599H88.7862V42.0239C88.7862 41.7119 88.7342 41.4399 88.6302 41.2079C88.5262 40.9759 88.3742 40.7919 88.1742 40.6559C87.9742 40.5199 87.7342 40.4519 87.4542 40.4519C87.1742 40.4519 86.9342 40.5199 86.7342 40.6559C86.5342 40.7919 86.3822 40.9759 86.2782 41.2079C86.1822 41.4399 86.1342 41.7119 86.1342 42.0239V42.0599Z" fill="black"/>
<path d="M78.9869 48C78.9229 48 78.8669 47.976 78.8189 47.928C78.7709 47.88 78.7469 47.824 78.7469 47.76C78.7469 47.728 78.7469 47.696 78.7469 47.664C78.7549 47.64 78.7709 47.608 78.7949 47.568L79.7309 45.348L77.4269 39.912C77.3949 39.832 77.3789 39.776 77.3789 39.744C77.3869 39.672 77.4149 39.612 77.4629 39.564C77.5109 39.508 77.5709 39.48 77.6429 39.48H78.6149C78.7109 39.48 78.7829 39.504 78.8309 39.552C78.8789 39.6 78.9149 39.652 78.9389 39.708L80.5349 43.632L82.1789 39.708C82.2029 39.644 82.2389 39.592 82.2869 39.552C82.3349 39.504 82.4069 39.48 82.5029 39.48H83.4629C83.5269 39.48 83.5829 39.504 83.6309 39.552C83.6869 39.6 83.7149 39.656 83.7149 39.72C83.7149 39.768 83.6989 39.832 83.6669 39.912L80.2709 47.772C80.2389 47.836 80.1989 47.888 80.1509 47.928C80.1029 47.976 80.0309 48 79.9349 48H78.9869Z" fill="black"/>
<path d="M72.7386 45.8399C72.3226 45.8399 71.9466 45.7599 71.6106 45.5999C71.2746 45.4319 71.0066 45.2119 70.8066 44.9399C70.6146 44.6599 70.5186 44.3479 70.5186 44.0039C70.5186 43.4439 70.7426 42.9999 71.1906 42.6719C71.6466 42.3359 72.2466 42.1119 72.9906 41.9999L74.6346 41.7599V41.5079C74.6346 41.1719 74.5506 40.9119 74.3826 40.7279C74.2146 40.5439 73.9266 40.4519 73.5186 40.4519C73.2306 40.4519 72.9946 40.5119 72.8106 40.6319C72.6346 40.7439 72.5026 40.8959 72.4146 41.0879C72.3506 41.1919 72.2586 41.2439 72.1386 41.2439H71.1906C71.1026 41.2439 71.0346 41.2199 70.9866 41.1719C70.9466 41.1239 70.9266 41.0599 70.9266 40.9799C70.9346 40.8519 70.9866 40.6959 71.0826 40.5119C71.1786 40.3279 71.3306 40.1519 71.5386 39.9839C71.7466 39.8079 72.0146 39.6599 72.3426 39.5399C72.6706 39.4199 73.0666 39.3599 73.5306 39.3599C74.0346 39.3599 74.4586 39.4239 74.8026 39.5519C75.1546 39.6719 75.4346 39.8359 75.6426 40.0439C75.8506 40.2519 76.0026 40.4959 76.0986 40.7759C76.1946 41.0559 76.2426 41.3519 76.2426 41.6639V45.4319C76.2426 45.5119 76.2146 45.5799 76.1586 45.6359C76.1026 45.6919 76.0346 45.7199 75.9546 45.7199H74.9826C74.8946 45.7199 74.8226 45.6919 74.7666 45.6359C74.7186 45.5799 74.6946 45.5119 74.6946 45.4319V44.9639C74.5906 45.1159 74.4506 45.2599 74.2746 45.3959C74.0986 45.5239 73.8826 45.6319 73.6266 45.7199C73.3786 45.7999 73.0826 45.8399 72.7386 45.8399ZM73.1466 44.6999C73.4266 44.6999 73.6786 44.6399 73.9026 44.5199C74.1346 44.3999 74.3146 44.2159 74.4426 43.9679C74.5786 43.7119 74.6466 43.3919 74.6466 43.0079V42.7559L73.4466 42.9479C72.9746 43.0199 72.6226 43.1359 72.3906 43.2959C72.1586 43.4559 72.0426 43.6519 72.0426 43.8839C72.0426 44.0599 72.0946 44.2119 72.1986 44.3399C72.3106 44.4599 72.4506 44.5519 72.6186 44.6159C72.7866 44.6719 72.9626 44.6999 73.1466 44.6999Z" fill="black"/>
<path d="M67.8114 45.7207C67.7314 45.7207 67.6634 45.6927 67.6074 45.6367C67.5514 45.5807 67.5234 45.5127 67.5234 45.4327V37.4887C67.5234 37.4087 67.5514 37.3407 67.6074 37.2847C67.6634 37.2287 67.7314 37.2007 67.8114 37.2007H68.8074C68.8874 37.2007 68.9554 37.2287 69.0114 37.2847C69.0674 37.3407 69.0954 37.4087 69.0954 37.4887V45.4327C69.0954 45.5127 69.0674 45.5807 69.0114 45.6367C68.9554 45.6927 68.8874 45.7207 68.8074 45.7207H67.8114Z" fill="black"/>
<path d="M59.7929 45.7198C59.7129 45.7198 59.6449 45.6918 59.5889 45.6358C59.5329 45.5798 59.5049 45.5118 59.5049 45.4318V37.6198C59.5049 37.5318 59.5329 37.4598 59.5889 37.4038C59.6449 37.3478 59.7129 37.3198 59.7929 37.3198H63.0089C63.6329 37.3198 64.1769 37.4198 64.6409 37.6198C65.1049 37.8118 65.4649 38.1078 65.7209 38.5078C65.9769 38.8998 66.1049 39.3918 66.1049 39.9838C66.1049 40.5838 65.9769 41.0798 65.7209 41.4718C65.4649 41.8558 65.1049 42.1438 64.6409 42.3358C64.1769 42.5278 63.6329 42.6238 63.0089 42.6238H61.2209V45.4318C61.2209 45.5118 61.1929 45.5798 61.1369 45.6358C61.0889 45.6918 61.0209 45.7198 60.9329 45.7198H59.7929ZM61.1969 41.2918H62.9489C63.4129 41.2918 63.7689 41.1838 64.0169 40.9678C64.2649 40.7438 64.3889 40.4158 64.3889 39.9838C64.3889 39.5838 64.2729 39.2638 64.0409 39.0238C63.8089 38.7758 63.4449 38.6518 62.9489 38.6518H61.1969V41.2918Z" fill="black"/>
<defs>
<clipPath id="clip0_29_21329">
<rect width="96" height="35.2007" fill="white"/>
</clipPath>
</defs>
</svg>
