<svg width="3" height="14" viewBox="0 0 3 14" fill="none" xmlns="http://www.w3.org/2000/svg">
<g id="Group 686">
<path id="Vector" d="M1.5 7.75001C1.91422 7.75001 2.25001 7.41422 2.25001 7C2.25001 6.58579 1.91422 6.25 1.5 6.25C1.08579 6.25 0.75 6.58579 0.75 7C0.75 7.41422 1.08579 7.75001 1.5 7.75001Z" stroke="#084892" stroke-width="1.5" stroke-linecap="round" stroke-linejoin="round"/>
<path id="Vector_2" d="M1.5 2.50001C1.91422 2.50001 2.25001 2.16422 2.25001 1.75C2.25001 1.33579 1.91422 1 1.5 1C1.08579 1 0.75 1.33579 0.75 1.75C0.75 2.16422 1.08579 2.50001 1.5 2.50001Z" stroke="#084892" stroke-width="1.5" stroke-linecap="round" stroke-linejoin="round"/>
<path id="Vector_3" d="M1.5 13C1.91422 13 2.25001 12.6642 2.25001 12.25C2.25001 11.8358 1.91422 11.5 1.5 11.5C1.08579 11.5 0.75 11.8358 0.75 12.25C0.75 12.6642 1.08579 13 1.5 13Z" stroke="#084892" stroke-width="1.5" stroke-linecap="round" stroke-linejoin="round"/>
</g>
</svg>
