<svg width="71" height="32" viewBox="0 0 71 32" fill="none" xmlns="http://www.w3.org/2000/svg">
<g clip-path="url(#clip0_24_17450)">
<g clip-path="url(#clip1_24_17450)">
<path d="M71.0001 9.58276V11.8073H67.9092V9.58276H71.0001ZM71.0001 12.4918V24.3837H67.9092V12.4918H69.4469H71.0001Z" fill="#515151"/>
<path d="M58.041 19.918V24.3845H54.9182L54.8809 9.58276H58.1549L58.0419 17.4102L62.3323 12.4814H65.6891L61.4651 17.1236L66.0109 24.3845H62.599L59.3872 18.9936L58.041 19.918Z" fill="#515151"/>
<path d="M53.003 9.58276V11.8073H49.9121V9.58276H53.003ZM53.003 12.5062V24.3837H49.9121V12.5062H53.003Z" fill="#515151"/>
<path d="M34.6291 18.528V24.3845H31.4632V15.2522C31.4632 14.5982 31.4537 14.052 31.4347 13.6144C31.4157 13.1766 31.3936 12.8302 31.3711 12.4917H34.3694C34.3841 12.5575 34.4229 12.6637 34.4376 12.892C34.4523 13.1203 34.4678 13.3758 34.4825 13.6588C34.4971 13.9417 34.511 14.2084 34.5222 14.4581C34.5334 14.7085 34.5394 14.888 34.5394 14.9983H34.5843C34.8846 14.1751 35.159 13.5827 35.4066 13.2228C35.6465 12.8774 35.9321 12.6236 36.2626 12.462C36.5932 12.3004 37.0064 12.2192 37.5018 12.2192C37.9074 12.2192 38.2344 12.2739 38.482 12.3842V14.9761C37.979 14.8658 37.5277 14.8111 37.1299 14.8111C36.3412 14.8111 35.7268 15.124 35.2876 15.7489C34.8492 16.3737 34.6291 17.3004 34.6291 18.528Z" fill="#515151"/>
<path d="M8.68372 21.8499C10.7203 21.8499 12.1299 20.8799 12.9136 18.9408L15.8433 19.9938C15.2122 21.4704 14.2872 22.5684 13.0677 23.2885C11.8482 24.0086 10.3863 24.3683 8.68458 24.3683C6.96661 24.3683 5.50385 24.0553 4.29545 23.4294C3.08705 22.8035 2.16555 21.8966 1.53095 20.7096C0.896343 19.5226 0.578613 18.097 0.578613 16.432C0.578613 14.753 0.88264 13.3344 1.4907 12.1768C2.09875 11.0192 2.99542 10.1374 4.18155 9.53306C5.36683 8.92876 6.81845 8.62622 8.53642 8.62622C10.4214 8.62622 11.9569 8.98668 13.1422 9.70684C14.3283 10.427 15.16 11.4852 15.6387 12.8823L12.6746 13.6534C12.4237 12.8866 11.9312 12.2762 11.1982 11.8241C10.4642 11.3719 9.60009 11.1454 8.60493 11.1454C7.0848 11.1454 5.9312 11.5941 5.14502 12.4914C4.35882 13.3889 3.96488 14.7029 3.96488 16.432C3.96488 17.6042 4.14557 18.5924 4.50613 19.3956C4.86668 20.1987 5.39937 20.809 6.10248 21.2248C6.80475 21.6424 7.66544 21.8499 8.68372 21.8499Z" fill="#515151"/>
<path d="M44.0072 18.5356V24.3845H40.8412V15.2642C40.8412 14.611 40.8317 14.0655 40.8127 13.6284C40.7937 13.1912 40.7773 12.8298 40.7549 12.4918H43.7751C43.7898 12.5575 43.801 12.6791 43.8157 12.907C43.8303 13.1349 43.8459 13.3902 43.8605 13.6728C43.8752 13.9554 43.889 14.2217 43.9002 14.471C43.9114 14.7211 43.9175 14.9005 43.9175 15.0106H43.9624C44.2626 14.1884 44.537 13.5968 44.7847 13.2374C45.0246 12.8925 45.3102 12.6389 45.6408 12.4776C45.9712 12.3162 46.3846 12.2351 46.8798 12.2351C47.2854 12.2351 47.6125 12.2897 47.8601 12.3999V14.9884C47.3571 14.8782 46.9058 14.8236 46.508 14.8236C45.7192 14.8236 45.1048 15.1361 44.6656 15.7602C44.2264 16.3842 44.0072 17.3096 44.0072 18.5356Z" fill="#515151"/>
<path d="M28.9858 21.554V14.0317C28.1039 14.8558 27.0305 15.342 25.8397 15.7001V18.745C25.8397 19.7315 25.6058 20.5401 25.1398 21.1702C24.673 21.8002 24.0595 22.1156 23.2975 22.1156C22.5804 22.1156 22.0437 21.8584 21.6847 21.3437C21.3266 20.8291 21.1471 20.0606 21.1471 19.0374V15.7001C19.9528 15.3317 18.8794 14.8686 18.001 14.0317V19.9008C18.001 21.3694 18.3444 22.4841 19.0313 23.2441C19.7181 24.004 20.7036 24.3836 21.9876 24.3836C22.8756 24.3836 23.6427 24.1818 24.289 23.7783C24.9345 23.3748 25.4669 22.7303 25.8845 21.8447H25.9406C25.9406 22.0968 25.9519 22.4174 25.9743 22.8064C25.9967 23.1953 26.1236 23.8646 26.1684 24.3836H29.0764C29.0462 24.0091 29.0238 23.3885 29.0092 22.9526C28.9936 22.5174 28.9858 22.0507 28.9858 21.554Z" fill="#515151"/>
<path d="M28.1643 10.0904C26.3662 10.7827 24.3319 10.845 22.4375 10.365C21.2506 10.0461 20.0971 9.53376 19.0714 8.81763C19.0698 8.86024 19.0664 8.90293 19.0647 8.94554C19.0271 9.76905 19.0834 10.5994 19.2753 11.3956C19.4602 12.1919 19.7792 12.96 20.2617 13.6045C20.7391 14.2515 21.4033 14.7494 22.1647 14.9847C22.9268 15.214 23.7632 15.1723 24.5289 14.8986C25.2987 14.6309 26.0022 14.1663 26.61 13.6011C27.7397 12.5449 28.5505 11.1646 29.0552 9.68802C28.9785 9.72729 28.9018 9.76648 28.8242 9.8049C28.6136 9.92331 28.3877 10.0009 28.1643 10.0904Z" fill="#515151"/>
<path d="M24.3655 2.18687C24.68 2.33691 25.0066 2.46393 25.3408 2.57305C26.0092 2.78192 26.7058 2.93964 27.416 2.94475C27.769 2.9456 28.1279 2.90638 28.4604 2.78362C28.5814 2.7427 28.694 2.68303 28.7997 2.61312C28.6863 2.41192 28.5618 2.2167 28.4229 2.03171C27.9165 1.35055 27.196 0.824554 26.3793 0.589262C25.97 0.477583 25.5437 0.437515 25.1234 0.464796C24.7014 0.491223 24.2887 0.597787 23.8973 0.749534C23.5785 0.876561 23.2767 1.03768 22.9902 1.22267C23.136 1.37868 23.3023 1.52361 23.4796 1.6549C23.7533 1.85694 24.0534 2.03256 24.3655 2.18687Z" fill="#515151"/>
<path d="M30.3085 8.82958L30.0271 9.04861C29.9316 9.11937 29.8413 9.19954 29.7415 9.26345L29.4704 9.43312C29.0083 11.0981 28.1762 12.6881 26.9254 13.925C26.5528 14.2899 26.1402 14.6207 25.6909 14.8969C28.7286 14.0009 30.9684 11.2584 31.1184 7.97705C30.9488 8.19103 30.7655 8.39478 30.5685 8.58231L30.3085 8.82958Z" fill="#515151"/>
<path d="M29.4526 4.42351C29.3179 3.8455 29.115 3.27773 28.8294 2.75514C28.722 2.82846 28.6094 2.89325 28.4866 2.93673C28.149 3.07654 27.7866 3.1473 27.4234 3.18566C27.0594 3.22403 26.6919 3.22403 26.3253 3.19674C25.9595 3.16435 25.5964 3.10041 25.2383 3.01346C24.8827 2.91712 24.5323 2.80118 24.1896 2.65881C23.8493 2.51218 23.5169 2.34082 23.2023 2.13196C22.9763 1.98106 22.7573 1.81141 22.5594 1.60938C22.3054 1.8063 22.0658 2.02284 21.8415 2.25131C21.2575 2.85063 20.7783 3.54286 20.3871 4.27602C20.1875 4.6409 20.0162 5.02027 19.8627 5.40645C19.7076 5.79178 19.5754 6.18565 19.4637 6.58547C19.3716 6.91455 19.2932 7.24702 19.231 7.58206C20.2046 8.47379 21.4102 9.14468 22.6941 9.56417C23.5484 9.83694 24.4386 10.0066 25.3405 10.0603C26.2426 10.1131 27.16 10.0415 28.0441 9.80708C28.2632 9.74145 28.4874 9.68772 28.6972 9.59566C28.8592 9.53175 29.0246 9.47211 29.1815 9.39622C29.421 8.59992 29.5847 7.77728 29.6325 6.94438C29.6854 6.1038 29.6385 5.2513 29.4526 4.42351Z" fill="#515151"/>
<path d="M28.9907 2.6753C29.2823 3.20812 29.4929 3.78612 29.6302 4.37862C30.0036 5.95235 29.9039 7.61475 29.4759 9.17569L29.5347 9.14668C29.637 9.09475 29.7308 9.02733 29.8297 8.96769L30.1229 8.78357L30.3915 8.56702C30.6499 8.35643 30.886 8.11858 31.0958 7.85941C31.0983 7.80741 31.1026 7.75541 31.1043 7.70341C31.1631 5.70257 30.441 3.86115 29.2141 2.46899C29.1664 2.52867 29.1127 2.58323 29.0546 2.63182C29.0333 2.64632 29.012 2.66081 28.9907 2.6753Z" fill="#515151"/>
<path d="M22.5716 0.56095C22.6185 0.692237 22.6748 0.831198 22.772 0.959078C22.7907 0.985499 22.8129 1.01108 22.8333 1.03751C23.1556 0.859333 23.4916 0.708437 23.8411 0.595053C24.6178 0.334185 25.4687 0.283033 26.2574 0.490194C25.4227 0.173912 24.518 0 23.5725 0C23.2588 0 22.9501 0.0213122 22.6466 0.0579701C22.616 0.101448 22.5895 0.146633 22.5708 0.195226C22.5401 0.3052 22.5401 0.427959 22.5716 0.56095Z" fill="#515151"/>
<path d="M28.473 1.9922C28.6163 2.17464 28.7467 2.3673 28.866 2.56594C28.884 2.55316 28.9019 2.54122 28.9189 2.52757C28.9744 2.47557 29.0238 2.41931 29.0673 2.35793C28.675 1.94616 28.2386 1.57788 27.7637 1.26245C28.0271 1.47814 28.2659 1.72281 28.473 1.9922Z" fill="#515151"/>
<path d="M18.3621 6.56265C18.4602 6.68797 18.5634 6.80903 18.6699 6.92752C18.7185 6.72207 18.7731 6.51747 18.832 6.31542C19.0962 5.47655 19.4467 4.66326 19.9139 3.91731C20.3793 3.17222 20.9437 2.48936 21.6003 1.9105C21.8441 1.69482 22.1033 1.49447 22.3744 1.31459C22.3633 1.30181 22.3523 1.28987 22.3411 1.27623C22.2133 1.12278 22.1127 0.932673 22.0342 0.728919C21.9805 0.55586 21.9575 0.363193 21.9805 0.167969C19.9199 0.608717 18.1695 1.88492 17.1021 3.62575C17.1242 3.85678 17.1634 4.08866 17.2214 4.31798C17.4226 5.11935 17.8267 5.8866 18.3621 6.56265Z" fill="#515151"/>
<path d="M18.6428 11.554C18.4245 10.6904 18.3443 9.79866 18.3819 8.91543C18.3912 8.71847 18.4075 8.52158 18.4279 8.3255C18.0698 8.02712 17.7313 7.70146 17.4184 7.34596C16.9597 6.81571 16.5625 6.21895 16.2606 5.56763C16.0841 6.21042 15.9878 6.88561 15.9878 7.58467C15.9878 10.5327 17.6708 13.0859 20.1279 14.3417C20.0111 14.2215 19.902 14.0953 19.7997 13.964C19.2386 13.2505 18.8678 12.4141 18.6428 11.554Z" fill="#515151"/>
</g>
<path d="M41.7505 29.1645C41.7505 28.415 42.4127 28.0403 43.7332 28.0403C45.1247 28.0403 45.8185 28.3726 45.8185 29.0408C45.8185 29.1009 45.7987 29.1504 45.7554 29.1928C45.712 29.2317 45.6568 29.2529 45.5898 29.2529H45.0222C44.8409 29.2529 44.6872 29.1822 44.561 29.0408C44.4349 28.8994 44.1905 28.8287 43.8278 28.8287C43.3272 28.8287 43.0749 28.9418 43.0749 29.1645C43.0749 29.2706 43.1735 29.3554 43.3706 29.4261C43.5677 29.4968 43.8081 29.5569 44.0919 29.61C44.3757 29.663 44.6556 29.7302 44.9394 29.8115C45.2193 29.8928 45.4598 30.0236 45.6568 30.2004C45.8539 30.3771 45.9525 30.6034 45.9525 30.8756C45.9525 31.6251 45.2548 31.9999 43.8594 31.9999C42.464 31.9999 41.7663 31.6675 41.7663 31.0029C41.7663 30.9393 41.7899 30.8898 41.8333 30.8473C41.8766 30.8084 41.9358 30.7872 42.0028 30.7872H42.5704C42.7517 30.7872 42.9054 30.8579 43.0316 30.9994C43.1577 31.1408 43.4021 31.2115 43.7648 31.2115C44.3442 31.2115 44.6359 31.0983 44.6359 30.8756C44.6359 30.7696 44.5374 30.6847 44.3403 30.614C44.1432 30.5433 43.9027 30.4832 43.6189 30.4266C43.3351 30.3736 43.0513 30.3064 42.7714 30.2251C42.4916 30.1438 42.2511 30.0165 42.054 29.8362C41.849 29.6524 41.7505 29.4297 41.7505 29.1645Z" fill="#515151"/>
<path d="M49.3856 31.1684L49.9059 31.126H50.0478C50.1148 31.126 50.174 31.1472 50.2173 31.1861C50.2607 31.225 50.2843 31.278 50.2843 31.3381V31.7093C50.2843 31.7588 50.2607 31.8048 50.2173 31.8472C50.174 31.8861 50.1148 31.9144 50.0478 31.9215C49.7877 31.9674 49.4526 31.9922 49.0348 31.9922C47.9429 31.9922 47.3989 31.4689 47.3989 30.426V27.1488C47.3989 27.0851 47.4226 27.0356 47.4659 26.9932C47.5093 26.9543 47.5645 26.9331 47.6315 26.9331H48.4829C48.5499 26.9331 48.6051 26.9543 48.6485 26.9932C48.6918 27.0321 48.7155 27.0851 48.7155 27.1488V28.3119H49.7758C49.8429 28.3119 49.898 28.3331 49.9414 28.372C49.9848 28.4109 50.0084 28.4639 50.0084 28.524V28.9376C50.0084 29.0013 49.9848 29.0508 49.9414 29.0897C49.898 29.1285 49.8429 29.1498 49.7758 29.1498H48.7155V30.426C48.7155 30.6629 48.7746 30.8467 48.8968 30.974C49.019 31.1013 49.1806 31.1684 49.3856 31.1684Z" fill="#515151"/>
<path d="M51.6167 30.3171V28.3232C51.6167 28.2596 51.6403 28.2101 51.6837 28.1676C51.7271 28.1288 51.7823 28.1075 51.8493 28.1075H52.7007C52.7677 28.1075 52.8229 28.1288 52.8662 28.1676C52.9096 28.2065 52.9333 28.2596 52.9333 28.3232V30.3171C52.9333 30.8757 53.1737 31.1515 53.6546 31.1515C53.97 31.1515 54.3129 30.9853 54.6795 30.6494V28.3197C54.6795 28.256 54.7031 28.2065 54.7465 28.1641C54.7898 28.1252 54.845 28.104 54.912 28.104H55.7595C55.8265 28.104 55.8857 28.1252 55.929 28.1641C55.9724 28.203 55.996 28.256 55.996 28.3197V31.71C55.996 31.7701 55.9724 31.8196 55.929 31.8621C55.8857 31.901 55.8265 31.9222 55.7595 31.9222H54.912C54.845 31.9222 54.7898 31.901 54.7465 31.8621C54.7031 31.8232 54.6795 31.7701 54.6795 31.71V31.4873C54.2419 31.8232 53.7768 31.9929 53.2841 31.9929C52.7914 31.9929 52.3893 31.855 52.0779 31.5792C51.7704 31.3035 51.6167 30.8863 51.6167 30.3171Z" fill="#515151"/>
<path d="M59.3113 31.9922C58.7792 31.9922 58.3377 31.8225 57.979 31.4795C57.6242 31.1402 57.4429 30.6487 57.4429 30.0124C57.4429 29.376 57.6281 28.8881 57.9987 28.5488C58.3692 28.2094 58.8659 28.0397 59.4887 28.0397C59.8119 28.0397 60.1785 28.0998 60.5884 28.2164V27.1488C60.5884 27.0851 60.6121 27.0356 60.6555 26.9932C60.6988 26.9543 60.754 26.9331 60.821 26.9331H61.6685C61.7355 26.9331 61.7946 26.9543 61.838 26.9932C61.8814 27.0321 61.905 27.0851 61.905 27.1488V31.7093C61.905 31.7694 61.8814 31.8189 61.838 31.8614C61.7946 31.9002 61.7355 31.9215 61.6685 31.9215H60.9393C60.8723 31.9215 60.8131 31.9002 60.7737 31.8614C60.7304 31.8225 60.7106 31.7694 60.7106 31.7093V31.6033C60.3086 31.8614 59.8434 31.9922 59.3113 31.9922ZM59.0235 29.1498C58.8777 29.3301 58.8067 29.6164 58.8067 30.0159C58.8067 30.4119 58.8738 30.7018 59.0117 30.8821C59.1497 31.0624 59.3547 31.1543 59.6306 31.1543C59.9065 31.1543 60.2258 31.0482 60.5924 30.8396V29.019C60.2652 28.927 59.9893 28.8811 59.7646 28.8811C59.4138 28.8811 59.1694 28.9695 59.0235 29.1498Z" fill="#515151"/>
<path d="M63.5269 27.3747V27.258C63.5269 27.1343 63.5663 27.0388 63.6412 26.9646C63.72 26.8939 63.8264 26.855 63.9644 26.855H64.4374C64.5715 26.855 64.6779 26.8903 64.7567 26.961C64.8356 27.0317 64.875 27.1307 64.875 27.2545V27.3711C64.875 27.4949 64.8356 27.5903 64.7607 27.6646C64.6818 27.7353 64.5754 27.7742 64.4374 27.7742H63.9644C63.8304 27.7742 63.7239 27.7388 63.6451 27.6646C63.5663 27.5974 63.5269 27.4984 63.5269 27.3747ZM63.5426 31.7055V28.4035C63.5426 28.3398 63.5663 28.2903 63.6096 28.2514C63.653 28.2125 63.7082 28.1913 63.7752 28.1913H64.6266C64.6937 28.1913 64.7528 28.2125 64.7922 28.2514C64.8356 28.2903 64.8553 28.3434 64.8553 28.4035V31.7055C64.8553 31.7691 64.8316 31.8186 64.7883 31.8575C64.7449 31.8964 64.6897 31.9176 64.6227 31.9176H63.7713C63.7042 31.9176 63.6451 31.8964 63.6057 31.8575C63.5663 31.8186 63.5426 31.7691 63.5426 31.7055Z" fill="#515151"/>
<path d="M66.9814 31.4908C66.5873 31.1549 66.3862 30.6635 66.3862 30.013C66.3862 29.3625 66.5833 28.8711 66.9814 28.5388C67.3756 28.2064 67.9472 28.0403 68.6883 28.0403C69.4293 28.0403 70.0009 28.2064 70.3951 28.5388C70.7892 28.8711 70.9903 29.3625 70.9903 30.013C70.9903 30.6635 70.7932 31.1549 70.3951 31.4908C69.9969 31.8266 69.4333 31.9928 68.6922 31.9928C67.9511 31.9928 67.3796 31.8266 66.9814 31.4908ZM67.9472 29.1115C67.7895 29.2989 67.7107 29.5994 67.7107 30.013C67.7107 30.4266 67.7895 30.7271 67.9472 30.918C68.1049 31.109 68.3532 31.2044 68.6922 31.2044C69.0312 31.2044 69.2795 31.109 69.4372 30.918C69.5949 30.7271 69.6737 30.4266 69.6737 30.013C69.6737 29.5994 69.5949 29.2989 69.4372 29.1115C69.2795 28.9241 69.0312 28.8287 68.6922 28.8287C68.3532 28.8287 68.1049 28.9241 67.9472 29.1115Z" fill="#515151"/>
<path fill-rule="evenodd" clip-rule="evenodd" d="M0.753418 30.0521C0.753418 29.8312 0.932504 29.6521 1.15342 29.6521L39.0948 29.6521C39.3158 29.6521 39.4949 29.8312 39.4949 30.0521C39.4949 30.273 39.3158 30.4521 39.0948 30.4521L1.15342 30.4521C0.932505 30.4521 0.753419 30.273 0.753418 30.0521Z" fill="#515151"/>
</g>
<defs>
<clipPath id="clip0_24_17450">
<rect width="70.4216" height="32" fill="white" transform="translate(0.578613)"/>
</clipPath>
<clipPath id="clip1_24_17450">
<rect width="70.4216" height="24.3844" fill="white" transform="translate(0.578613)"/>
</clipPath>
</defs>
</svg>
