<svg width="40" height="40" viewBox="0 0 40 40" fill="none" xmlns="http://www.w3.org/2000/svg">
<g id="Icons - explanatory - miscellaneous - informative">
<path id="Vector" d="M20.0003 0C8.95565 0 0.000976562 8.95495 0.000976562 20C0.000976562 31.0463 8.95565 40 20.0003 40C31.0463 40 39.9997 31.0476 39.9997 20C39.9997 8.95495 31.0462 0 20.0003 0ZM20.0003 36.2499C11.0257 36.2499 3.75092 28.9749 3.75092 20C3.75092 11.0251 11.0257 3.75006 20.0003 3.75006C28.975 3.75006 36.2498 11.0251 36.2498 20C36.2498 28.9749 28.975 36.2499 20.0003 36.2499ZM20.0016 8.77121C18.5692 8.77121 17.4854 9.51876 17.4854 10.7262V21.8012C17.4854 23.0099 18.5691 23.755 20.0016 23.755C21.3991 23.755 22.5178 22.9787 22.5178 21.8012V10.7262C22.5177 9.54743 21.3991 8.77121 20.0016 8.77121ZM20.0016 26.25C18.6254 26.25 17.5054 27.3701 17.5054 28.7474C17.5054 30.1224 18.6254 31.2425 20.0016 31.2425C21.3778 31.2425 22.4966 30.1224 22.4966 28.7474C22.4964 27.3699 21.3778 26.25 20.0016 26.25Z" fill="#F8AF2C"/>
</g>
</svg>
