<svg width="48" height="48" viewBox="0 0 48 48" fill="none" xmlns="http://www.w3.org/2000/svg">
<path d="M40.4999 25.1401V22.8451L43.3799 20.3251C43.9108 19.8572 44.2592 19.2167 44.3635 18.5167C44.4678 17.8168 44.3213 17.1025 43.9499 16.5001L40.4099 10.5001C40.1468 10.0445 39.7686 9.66609 39.3131 9.40281C38.8577 9.13954 38.341 9.00066 37.8149 9.00012C37.4889 8.99762 37.1646 9.04829 36.8549 9.15012L33.2099 10.3801C32.5806 9.96193 31.9241 9.5861 31.2449 9.25512L30.4799 5.47512C30.3427 4.78453 29.967 4.16418 29.4186 3.72267C28.8701 3.28117 28.1838 3.04663 27.4799 3.06012H20.4599C19.7559 3.04663 19.0697 3.28117 18.5212 3.72267C17.9728 4.16418 17.5971 4.78453 17.4599 5.47512L16.6949 9.25512C16.0108 9.58602 15.3493 9.96184 14.7149 10.3801L11.1449 9.09012C10.8318 9.00856 10.5076 8.97816 10.1849 9.00012C9.6588 9.00066 9.14211 9.13954 8.68663 9.40281C8.23116 9.66609 7.85293 10.0445 7.58989 10.5001L4.04989 16.5001C3.69977 17.1016 3.56967 17.8061 3.68186 18.493C3.79406 19.1798 4.14158 19.8063 4.66489 20.2651L7.49989 22.8601V25.1551L4.66489 27.6751C4.12679 28.1371 3.76977 28.7748 3.65719 29.475C3.5446 30.1753 3.68373 30.8927 4.04989 31.5001L7.58989 37.5001C7.85293 37.9557 8.23116 38.3341 8.68663 38.5974C9.14211 38.8607 9.6588 38.9996 10.1849 39.0001C10.5109 39.0026 10.8352 38.952 11.1449 38.8501L14.7899 37.6201C15.4192 38.0383 16.0757 38.4141 16.7549 38.7451L17.5199 42.5251C17.6571 43.2157 18.0328 43.8361 18.5812 44.2776C19.1297 44.7191 19.8159 44.9536 20.5199 44.9401H27.5999C28.3038 44.9536 28.9901 44.7191 29.5386 44.2776C30.087 43.8361 30.4627 43.2157 30.5999 42.5251L31.3649 38.7451C32.049 38.4142 32.7104 38.0384 33.3449 37.6201L36.9749 38.8501C37.2846 38.952 37.6089 39.0026 37.9349 39.0001C38.461 38.9996 38.9777 38.8607 39.4331 38.5974C39.8886 38.3341 40.2668 37.9557 40.5299 37.5001L43.9499 31.5001C44.3 30.8986 44.4301 30.1941 44.3179 29.5073C44.2057 28.8204 43.8582 28.1939 43.3349 27.7351L40.4999 25.1401ZM37.8149 36.0001L32.6699 34.2601C31.4655 35.2803 30.089 36.0777 28.6049 36.6151L27.5399 42.0001H20.4599L19.3949 36.6751C17.9225 36.1225 16.5535 35.3264 15.3449 34.3201L10.1849 36.0001L6.64489 30.0001L10.7249 26.4001C10.4475 24.8474 10.4475 23.2578 10.7249 21.7051L6.64489 18.0001L10.1849 12.0001L15.3299 13.7401C16.5343 12.72 17.9108 11.9225 19.3949 11.3851L20.4599 6.00012H27.5399L28.6049 11.3251C30.0773 11.8778 31.4463 12.6738 32.6549 13.6801L37.8149 12.0001L41.3549 18.0001L37.2749 21.6001C37.5522 23.1528 37.5522 24.7424 37.2749 26.2951L41.3549 30.0001L37.8149 36.0001Z" fill="#084892"/>
<path d="M24 33C22.22 33 20.4799 32.4722 18.9999 31.4832C17.5198 30.4943 16.3663 29.0887 15.6851 27.4442C15.0039 25.7996 14.8257 23.99 15.1729 22.2442C15.5202 20.4984 16.3774 18.8947 17.636 17.636C18.8947 16.3774 20.4984 15.5202 22.2442 15.1729C23.99 14.8257 25.7996 15.0039 27.4442 15.6851C29.0887 16.3663 30.4943 17.5198 31.4832 18.9999C32.4722 20.4799 33 22.22 33 24C33.012 25.1852 32.7875 26.361 32.3394 27.4583C31.8914 28.5557 31.2289 29.5526 30.3908 30.3908C29.5526 31.2289 28.5557 31.8914 27.4583 32.3394C26.361 32.7875 25.1852 33.012 24 33ZM24 18C23.207 17.9815 22.4185 18.1241 21.6822 18.4191C20.9459 18.7141 20.2771 19.1554 19.7162 19.7162C19.1554 20.2771 18.7141 20.9459 18.4191 21.6822C18.1241 22.4185 17.9815 23.207 18 24C17.9815 24.793 18.1241 25.5815 18.4191 26.3178C18.7141 27.0541 19.1554 27.7229 19.7162 28.2838C20.2771 28.8447 20.9459 29.2859 21.6822 29.5809C22.4185 29.8759 23.207 30.0185 24 30C24.793 30.0185 25.5815 29.8759 26.3178 29.5809C27.0541 29.2859 27.7229 28.8447 28.2838 28.2838C28.8447 27.7229 29.2859 27.0541 29.5809 26.3178C29.8759 25.5815 30.0185 24.793 30 24C30.0185 23.207 29.8759 22.4185 29.5809 21.6822C29.2859 20.9459 28.8447 20.2771 28.2838 19.7162C27.7229 19.1554 27.0541 18.7141 26.3178 18.4191C25.5815 18.1241 24.793 17.9815 24 18Z" fill="#084892"/>
</svg>
